<svg width="86" height="58" viewBox="0 0 86 58" fill="none" xmlns="http://www.w3.org/2000/svg">
<path d="M28.59 41.46C28.6833 41.74 28.73 42.0667 28.73 42.44C28.7767 42.8133 28.8 43.1633 28.8 43.49C28.8 44.33 28.7067 45.1233 28.52 45.87C28.3333 46.6167 28.03 47.27 27.61 47.83C27.19 48.39 26.63 48.8567 25.93 49.23C25.2767 49.5567 24.4367 49.72 23.41 49.72C22.43 49.72 21.45 49.51 20.47 49.09C19.5367 48.67 18.37 48.0633 16.97 47.27L1.92 38.59C0.706667 37.0033 0.1 34.9033 0.1 32.29C0.1 30.33 0.38 28.8133 0.94 27.74C1.5 26.6667 2.31667 25.8267 3.39 25.22L22.64 14.02C24.9267 14.6267 26.4667 15.4667 27.26 16.54C28.1 17.5667 28.52 18.6867 28.52 19.9C28.52 21.5333 28.1 22.8167 27.26 23.75C26.4667 24.6367 25.2767 25.4767 23.69 26.27L11.37 32.5L28.59 41.46ZM57.3234 22.28C57.23 22 57.16 21.6733 57.1134 21.3C57.1134 20.9267 57.1134 20.5767 57.1134 20.25C57.1134 19.41 57.2067 18.6167 57.3934 17.87C57.58 17.1233 57.8834 16.47 58.3034 15.91C58.7234 15.35 59.26 14.9067 59.9134 14.58C60.6134 14.2067 61.4767 14.02 62.5034 14.02C63.4834 14.02 64.44 14.23 65.3734 14.65C66.3534 15.07 67.5434 15.6767 68.9434 16.47L83.9934 25.15C85.2067 26.7367 85.8134 28.8367 85.8134 31.45C85.8134 33.41 85.5334 34.9267 84.9734 36C84.4134 37.0733 83.5967 37.9133 82.5234 38.52L63.2734 49.72C60.9867 49.1133 59.4234 48.2967 58.5834 47.27C57.79 46.1967 57.3934 45.0533 57.3934 43.84C57.3934 42.2067 57.79 40.9467 58.5834 40.06C59.4234 39.1267 60.6367 38.2633 62.2234 37.47L74.5434 31.24L57.3234 22.28Z" fill="white"/>
<path d="M40.8192 57.42C40.1659 57.5133 39.5359 57.56 38.9292 57.56C38.3226 57.6067 37.7626 57.63 37.2492 57.63C35.2892 57.63 33.7726 57.21 32.6992 56.37C31.6726 55.53 31.1592 54.1767 31.1592 52.31C31.1592 51.05 31.3459 49.79 31.7192 48.53C32.0926 47.2233 32.4192 46.08 32.6992 45.1L45.0192 0.649997C45.7192 0.556665 46.3726 0.509999 46.9792 0.509999C47.5859 0.463333 48.1459 0.44 48.6592 0.44C50.5259 0.44 51.9959 0.836665 53.0692 1.63C54.1892 2.42333 54.7492 3.70666 54.7492 5.48C54.7492 6.83333 54.5626 8.11666 54.1892 9.33C53.8159 10.5433 53.4659 11.7567 53.1392 12.97L40.8192 57.42Z" fill="url(#paint0_linear_1_12)"/>
<defs>
<linearGradient id="paint0_linear_1_12" x1="43" y1="-23" x2="43" y2="87" gradientUnits="userSpaceOnUse">
<stop stop-color="#52EE91"/>
<stop offset="1" stop-color="#40B7FB"/>
</linearGradient>
</defs>
</svg>
