<svg width="24" height="24" viewBox="0 0 24 24" fill="none" xmlns="http://www.w3.org/2000/svg">
<path d="M6.84734 15.0943H7.93139L8.31561 14.7238C6.97084 13.1595 6.16123 11.1286 6.16123 8.91938C6.16123 3.99314 10.1544 0 15.0806 0C20.0069 0 24 3.99314 24 8.91938C24 13.8456 20.0069 17.8388 15.0806 17.8388C12.8714 17.8388 10.8405 17.0292 9.27616 15.6844L8.90566 16.0686V17.1527L2.0446 24L-1.90735e-06 21.9554L6.84734 15.0943ZM15.0806 15.0943C18.4974 15.0943 21.2556 12.3362 21.2556 8.91938C21.2556 5.50257 18.4974 2.74443 15.0806 2.74443C11.6638 2.74443 8.90566 5.50257 8.90566 8.91938C8.90566 12.3362 11.6638 15.0943 15.0806 15.0943Z" fill="white" fill-opacity="0.4"/>
</svg>
